G04*
G04 #@! TF.GenerationSoftware,Altium Limited,Altium Designer,18.0.9 (584)*
G04*
G04 Layer_Physical_Order=2*
G04 Layer_Color=16711680*
%FSLAX25Y25*%
%MOIN*%
G70*
G01*
G75*
%ADD13C,0.01000*%
%ADD34O,0.06890X0.09843*%
%ADD35C,0.05512*%
%ADD36C,0.05000*%
G36*
X490000Y300000D02*
X200000D01*
Y450000D01*
X230000Y480000D01*
X490000D01*
Y300000D01*
D02*
G37*
%LPC*%
G36*
X458500Y359784D02*
X457650Y359672D01*
X456858Y359344D01*
X456178Y358822D01*
X455656Y358142D01*
X455328Y357350D01*
X455216Y356500D01*
X455328Y355650D01*
X455656Y354858D01*
X456178Y354178D01*
X456858Y353656D01*
X457650Y353328D01*
X458500Y353216D01*
X459350Y353328D01*
X460142Y353656D01*
X460822Y354178D01*
X461344Y354858D01*
X461672Y355650D01*
X461784Y356500D01*
X461672Y357350D01*
X461344Y358142D01*
X460822Y358822D01*
X460142Y359344D01*
X459350Y359672D01*
X458500Y359784D01*
D02*
G37*
G36*
X428500D02*
X427650Y359672D01*
X426858Y359344D01*
X426178Y358822D01*
X425656Y358142D01*
X425328Y357350D01*
X425216Y356500D01*
X425328Y355650D01*
X425656Y354858D01*
X426178Y354178D01*
X426858Y353656D01*
X427650Y353328D01*
X428500Y353216D01*
X429350Y353328D01*
X430142Y353656D01*
X430822Y354178D01*
X431344Y354858D01*
X431672Y355650D01*
X431784Y356500D01*
X431672Y357350D01*
X431344Y358142D01*
X430822Y358822D01*
X430142Y359344D01*
X429350Y359672D01*
X428500Y359784D01*
D02*
G37*
G36*
X459000Y347723D02*
Y344500D01*
X462222D01*
X462159Y344981D01*
X461781Y345894D01*
X461179Y346679D01*
X460394Y347281D01*
X459480Y347659D01*
X459000Y347723D01*
D02*
G37*
G36*
X458000D02*
X457519Y347659D01*
X456606Y347281D01*
X455821Y346679D01*
X455219Y345894D01*
X454841Y344981D01*
X454777Y344500D01*
X458000D01*
Y347723D01*
D02*
G37*
G36*
X428500Y347284D02*
X427650Y347172D01*
X426858Y346844D01*
X426178Y346322D01*
X425656Y345642D01*
X425328Y344850D01*
X425216Y344000D01*
X425328Y343150D01*
X425656Y342358D01*
X426178Y341678D01*
X426858Y341156D01*
X427650Y340828D01*
X428500Y340716D01*
X429350Y340828D01*
X430142Y341156D01*
X430822Y341678D01*
X431344Y342358D01*
X431672Y343150D01*
X431784Y344000D01*
X431672Y344850D01*
X431344Y345642D01*
X430822Y346322D01*
X430142Y346844D01*
X429350Y347172D01*
X428500Y347284D01*
D02*
G37*
G36*
X462222Y343500D02*
X459000D01*
Y340278D01*
X459480Y340341D01*
X460394Y340719D01*
X461179Y341321D01*
X461781Y342106D01*
X462159Y343020D01*
X462222Y343500D01*
D02*
G37*
G36*
X458000D02*
X454777D01*
X454841Y343020D01*
X455219Y342106D01*
X455821Y341321D01*
X456606Y340719D01*
X457519Y340341D01*
X458000Y340278D01*
Y343500D01*
D02*
G37*
G36*
X452000Y327394D02*
Y322000D01*
X455983D01*
Y322976D01*
X455830Y324137D01*
X455383Y325218D01*
X454670Y326147D01*
X453742Y326859D01*
X452660Y327307D01*
X452000Y327394D01*
D02*
G37*
G36*
X432000D02*
Y322000D01*
X435983D01*
Y322976D01*
X435830Y324137D01*
X435383Y325218D01*
X434670Y326147D01*
X433742Y326859D01*
X432660Y327307D01*
X432000Y327394D01*
D02*
G37*
G36*
X451000Y327394D02*
X450340Y327307D01*
X449258Y326859D01*
X448330Y326147D01*
X447617Y325218D01*
X447169Y324137D01*
X447017Y322976D01*
Y322000D01*
X451000D01*
Y327394D01*
D02*
G37*
G36*
X431000D02*
X430340Y327307D01*
X429258Y326859D01*
X428330Y326147D01*
X427617Y325218D01*
X427170Y324137D01*
X427017Y322976D01*
Y322000D01*
X431000D01*
Y327394D01*
D02*
G37*
G36*
X355941Y332026D02*
X355158Y331923D01*
X354428Y331621D01*
X353801Y331140D01*
X353320Y330513D01*
X353018Y329783D01*
X352915Y329000D01*
X353018Y328217D01*
X353320Y327487D01*
X353801Y326860D01*
X354428Y326379D01*
X354921Y326175D01*
Y324922D01*
X347019Y317020D01*
X267424D01*
X267304Y317175D01*
X266677Y317656D01*
X265948Y317958D01*
X265165Y318061D01*
X264381Y317958D01*
X263652Y317656D01*
X263025Y317175D01*
X262544Y316548D01*
X262242Y315819D01*
X262139Y315035D01*
X262242Y314252D01*
X262544Y313523D01*
X263025Y312896D01*
X263652Y312415D01*
X264381Y312113D01*
X265165Y312010D01*
X265948Y312113D01*
X266677Y312415D01*
X267304Y312896D01*
X267785Y313523D01*
X268087Y314252D01*
X268183Y314980D01*
X347441D01*
X347831Y315058D01*
X348162Y315279D01*
X356662Y323779D01*
X356883Y324110D01*
X356961Y324500D01*
Y326175D01*
X357454Y326379D01*
X358081Y326860D01*
X358561Y327487D01*
X358864Y328217D01*
X358967Y329000D01*
X358864Y329783D01*
X358561Y330513D01*
X358081Y331140D01*
X357454Y331621D01*
X356724Y331923D01*
X355941Y332026D01*
D02*
G37*
G36*
X461500Y326955D02*
X460470Y326820D01*
X459511Y326422D01*
X458686Y325790D01*
X458054Y324966D01*
X457657Y324006D01*
X457521Y322976D01*
Y320024D01*
X457657Y318994D01*
X458054Y318034D01*
X458686Y317210D01*
X459511Y316578D01*
X460470Y316180D01*
X461500Y316045D01*
X462530Y316180D01*
X463489Y316578D01*
X464314Y317210D01*
X464946Y318034D01*
X465343Y318994D01*
X465479Y320024D01*
Y322976D01*
X465343Y324006D01*
X464946Y324966D01*
X464314Y325790D01*
X463489Y326422D01*
X462530Y326820D01*
X461500Y326955D01*
D02*
G37*
G36*
X432000Y332020D02*
X419000D01*
X418610Y331942D01*
X418279Y331721D01*
X404279Y317721D01*
X404058Y317390D01*
X403980Y317000D01*
Y316602D01*
X403358Y316344D01*
X402678Y315822D01*
X402156Y315142D01*
X401828Y314350D01*
X401716Y313500D01*
X401828Y312650D01*
X402156Y311858D01*
X402678Y311178D01*
X403358Y310656D01*
X404150Y310328D01*
X405000Y310216D01*
X405850Y310328D01*
X406642Y310656D01*
X407322Y311178D01*
X407844Y311858D01*
X408172Y312650D01*
X408284Y313500D01*
X408172Y314350D01*
X407844Y315142D01*
X407322Y315822D01*
X406642Y316344D01*
X406452Y316423D01*
X406355Y316913D01*
X419422Y329980D01*
X431578D01*
X437644Y323914D01*
X437521Y322976D01*
Y320024D01*
X437657Y318994D01*
X438054Y318034D01*
X438687Y317210D01*
X439510Y316578D01*
X440470Y316180D01*
X441500Y316045D01*
X442530Y316180D01*
X443490Y316578D01*
X444313Y317210D01*
X444946Y318034D01*
X445343Y318994D01*
X445479Y320024D01*
Y322976D01*
X445343Y324006D01*
X444946Y324966D01*
X444313Y325790D01*
X443490Y326422D01*
X442530Y326820D01*
X441500Y326955D01*
X440470Y326820D01*
X439510Y326422D01*
X438687Y325790D01*
X438654Y325788D01*
X432721Y331721D01*
X432390Y331942D01*
X432000Y332020D01*
D02*
G37*
G36*
X455983Y321000D02*
X452000D01*
Y315606D01*
X452660Y315693D01*
X453742Y316141D01*
X454670Y316853D01*
X455383Y317782D01*
X455830Y318863D01*
X455983Y320024D01*
Y321000D01*
D02*
G37*
G36*
X435983D02*
X432000D01*
Y315606D01*
X432660Y315693D01*
X433742Y316141D01*
X434670Y316853D01*
X435383Y317782D01*
X435830Y318863D01*
X435983Y320024D01*
Y321000D01*
D02*
G37*
G36*
X451000D02*
X447017D01*
Y320024D01*
X447169Y318863D01*
X447617Y317782D01*
X448330Y316853D01*
X449258Y316141D01*
X450340Y315693D01*
X451000Y315606D01*
Y321000D01*
D02*
G37*
G36*
X431000D02*
X427017D01*
Y320024D01*
X427170Y318863D01*
X427617Y317782D01*
X428330Y316853D01*
X429258Y316141D01*
X430340Y315693D01*
X431000Y315606D01*
Y321000D01*
D02*
G37*
G36*
X375000Y316784D02*
X374150Y316672D01*
X373358Y316344D01*
X372678Y315822D01*
X372156Y315142D01*
X371828Y314350D01*
X371716Y313500D01*
X371828Y312650D01*
X372156Y311858D01*
X372678Y311178D01*
X373358Y310656D01*
X374150Y310328D01*
X375000Y310216D01*
X375850Y310328D01*
X376642Y310656D01*
X377322Y311178D01*
X377844Y311858D01*
X378172Y312650D01*
X378284Y313500D01*
X378172Y314350D01*
X377844Y315142D01*
X377322Y315822D01*
X376642Y316344D01*
X375850Y316672D01*
X375000Y316784D01*
D02*
G37*
%LPD*%
D13*
X405000Y313500D02*
Y317000D01*
X419000Y331000D01*
X432000D01*
X441500Y321500D01*
X355941Y324500D02*
Y329000D01*
X347441Y316000D02*
X355941Y324500D01*
X266129Y316000D02*
X347441D01*
X265165Y315035D02*
X266129Y316000D01*
D34*
X431500Y321500D02*
D03*
X461500D02*
D03*
X451500D02*
D03*
X441500D02*
D03*
D35*
X405000Y313500D02*
D03*
X375000D02*
D03*
X428500Y356500D02*
D03*
X458500D02*
D03*
X428500Y344000D02*
D03*
X458500D02*
D03*
D36*
X355941Y329000D02*
D03*
X265165Y315035D02*
D03*
M02*
