G04*
G04 #@! TF.GenerationSoftware,Altium Limited,Altium Designer,18.0.9 (584)*
G04*
G04 Layer_Color=8388736*
%FSLAX25Y25*%
%MOIN*%
G70*
G01*
G75*
%ADD23R,0.04147X0.04540*%
%ADD24R,0.09855X0.19107*%
%ADD25R,0.05918X0.11430*%
%ADD26R,0.11430X0.05918*%
%ADD27R,0.04343X0.04737*%
%ADD28R,0.15682X0.10682*%
%ADD29R,0.10682X0.15682*%
%ADD30C,0.10682*%
%ADD31O,0.07690X0.10642*%
%ADD32C,0.06312*%
%ADD33C,0.05800*%
D23*
X454382Y368500D02*
D03*
X459500D02*
D03*
X473000D02*
D03*
X467882D02*
D03*
D24*
X295641Y403500D02*
D03*
Y440902D02*
D03*
X296141Y329299D02*
D03*
Y366701D02*
D03*
D25*
X339094Y326020D02*
D03*
X328070D02*
D03*
X242629Y419035D02*
D03*
X253653D02*
D03*
X242629Y394535D02*
D03*
X253653D02*
D03*
X242629Y370535D02*
D03*
X253653D02*
D03*
X242641Y346535D02*
D03*
X253665D02*
D03*
X242141Y322535D02*
D03*
X253165D02*
D03*
X217129Y419035D02*
D03*
X228153D02*
D03*
X217129Y394535D02*
D03*
X228153D02*
D03*
X217129Y370535D02*
D03*
X228153D02*
D03*
X217129Y346535D02*
D03*
X228153D02*
D03*
X217129Y322535D02*
D03*
X228153D02*
D03*
X339117Y447535D02*
D03*
X328094D02*
D03*
X339117Y423535D02*
D03*
X328094D02*
D03*
X339117Y399035D02*
D03*
X328094D02*
D03*
X339117Y375035D02*
D03*
X328094D02*
D03*
X339141Y350035D02*
D03*
X328117D02*
D03*
D26*
X414941Y369512D02*
D03*
Y358488D02*
D03*
X473000Y356012D02*
D03*
Y344988D02*
D03*
D27*
X446098Y368500D02*
D03*
X440784D02*
D03*
X251456Y440035D02*
D03*
X246141D02*
D03*
X225456D02*
D03*
X220141D02*
D03*
D28*
X400704Y382000D02*
D03*
X430586D02*
D03*
X443106Y464520D02*
D03*
D29*
X366649Y390071D02*
D03*
Y410465D02*
D03*
Y439559D02*
D03*
Y458260D02*
D03*
D30*
X464641Y382000D02*
D03*
Y398535D02*
D03*
Y415031D02*
D03*
Y431528D02*
D03*
Y448024D02*
D03*
Y464520D02*
D03*
D31*
X431500Y321500D02*
D03*
X461500D02*
D03*
X451500D02*
D03*
X441500D02*
D03*
D32*
X405000Y313500D02*
D03*
X375000D02*
D03*
X428500Y356500D02*
D03*
X458500D02*
D03*
X428500Y344000D02*
D03*
X458500D02*
D03*
D33*
X355941Y329000D02*
D03*
X265165Y315035D02*
D03*
M02*
