G04*
G04 #@! TF.GenerationSoftware,Altium Limited,Altium Designer,18.0.9 (584)*
G04*
G04 Layer_Physical_Order=1*
G04 Layer_Color=255*
%FSLAX25Y25*%
%MOIN*%
G70*
G01*
G75*
%ADD13C,0.01000*%
%ADD15R,0.03347X0.03740*%
%ADD16R,0.09055X0.18307*%
%ADD17R,0.05118X0.10630*%
%ADD18R,0.10630X0.05118*%
%ADD19R,0.03543X0.03937*%
%ADD20R,0.14882X0.09882*%
%ADD21R,0.09882X0.14882*%
%ADD22C,0.09882*%
%ADD34O,0.06890X0.09843*%
%ADD35C,0.05512*%
%ADD36C,0.05000*%
G36*
X490000Y300000D02*
X200000D01*
Y450000D01*
X230000Y480000D01*
X490000D01*
Y300000D01*
D02*
G37*
%LPC*%
G36*
X364759Y471445D02*
X364369Y471367D01*
X364038Y471146D01*
X363817Y470815D01*
X363739Y470425D01*
Y470138D01*
X363817Y469748D01*
X364038Y469417D01*
X364369Y469196D01*
X364759Y469118D01*
X365149Y469196D01*
X365480Y469417D01*
X365701Y469748D01*
X365779Y470138D01*
Y470425D01*
X365701Y470815D01*
X365480Y471146D01*
X365149Y471367D01*
X364759Y471445D01*
D02*
G37*
G36*
X451546Y470461D02*
X443606D01*
Y465020D01*
X451546D01*
Y470461D01*
D02*
G37*
G36*
X442605D02*
X434665D01*
Y465020D01*
X442605D01*
Y470461D01*
D02*
G37*
G36*
X464641Y470008D02*
X463221Y469821D01*
X461897Y469272D01*
X460760Y468400D01*
X459888Y467264D01*
X459340Y465940D01*
X459153Y464520D01*
X459340Y463099D01*
X459888Y461776D01*
X460760Y460639D01*
X461897Y459767D01*
X463221Y459219D01*
X464641Y459032D01*
X466061Y459219D01*
X467385Y459767D01*
X468521Y460639D01*
X469394Y461776D01*
X469942Y463099D01*
X470129Y464520D01*
X469942Y465940D01*
X469394Y467264D01*
X468521Y468400D01*
X467385Y469272D01*
X466061Y469821D01*
X464641Y470008D01*
D02*
G37*
G36*
X372590Y466701D02*
X367149D01*
Y458760D01*
X372590D01*
Y466701D01*
D02*
G37*
G36*
X366149D02*
X360708D01*
Y458760D01*
X366149D01*
Y466701D01*
D02*
G37*
G36*
X451546Y464020D02*
X443606D01*
Y458579D01*
X451546D01*
Y464020D01*
D02*
G37*
G36*
X442605D02*
X434665D01*
Y458579D01*
X442605D01*
Y464020D01*
D02*
G37*
G36*
X372590Y457760D02*
X367149D01*
Y449819D01*
X372590D01*
Y457760D01*
D02*
G37*
G36*
X366149D02*
X360708D01*
Y449819D01*
X366149D01*
Y457760D01*
D02*
G37*
G36*
X331653Y453850D02*
X328594D01*
Y448035D01*
X331653D01*
Y453850D01*
D02*
G37*
G36*
X327594D02*
X324535D01*
Y448035D01*
X327594D01*
Y453850D01*
D02*
G37*
G36*
X464641Y453511D02*
X463221Y453325D01*
X461897Y452776D01*
X460760Y451904D01*
X459888Y450768D01*
X459340Y449444D01*
X459153Y448024D01*
X459340Y446603D01*
X459888Y445280D01*
X460760Y444143D01*
X461897Y443271D01*
X463221Y442723D01*
X464641Y442536D01*
X466061Y442723D01*
X467385Y443271D01*
X468521Y444143D01*
X469394Y445280D01*
X469942Y446603D01*
X470129Y448024D01*
X469942Y449444D01*
X469394Y450768D01*
X468521Y451904D01*
X467385Y452776D01*
X466061Y453325D01*
X464641Y453511D01*
D02*
G37*
G36*
X331653Y447035D02*
X328594D01*
Y441221D01*
X331653D01*
Y447035D01*
D02*
G37*
G36*
X327594D02*
X324535D01*
Y441221D01*
X327594D01*
Y447035D01*
D02*
G37*
G36*
X245641Y443004D02*
X243369D01*
Y440535D01*
X245641D01*
Y443004D01*
D02*
G37*
G36*
X219641D02*
X217369D01*
Y440535D01*
X219641D01*
Y443004D01*
D02*
G37*
G36*
X245641Y439535D02*
X243369D01*
Y437067D01*
X245641D01*
Y439535D01*
D02*
G37*
G36*
X219641D02*
X217369D01*
Y437067D01*
X219641D01*
Y439535D01*
D02*
G37*
G36*
X339972Y473539D02*
X253440D01*
X253050Y473462D01*
X252719Y473241D01*
X224735Y445256D01*
X224514Y444926D01*
X224436Y444535D01*
Y442858D01*
X224083Y442504D01*
X223184Y442504D01*
X222913Y442891D01*
Y443004D01*
X220641D01*
Y440035D01*
Y437067D01*
X222913D01*
Y437180D01*
X223184Y437567D01*
X223413Y437567D01*
X226483D01*
X227133Y436916D01*
Y424850D01*
X225094D01*
Y413221D01*
X227133D01*
Y400350D01*
X225094D01*
Y388720D01*
X227133D01*
Y376350D01*
X225094D01*
Y364721D01*
X227133D01*
Y352350D01*
X225094D01*
Y340721D01*
X227133D01*
Y328350D01*
X225094D01*
Y316721D01*
X227145D01*
Y312276D01*
X227223Y311886D01*
X227444Y311555D01*
X233446Y305553D01*
X233777Y305332D01*
X234167Y305254D01*
X413774D01*
X414164Y305332D01*
X414495Y305553D01*
X419721Y310779D01*
X419942Y311110D01*
X420020Y311500D01*
Y334078D01*
X421422Y335480D01*
X436078D01*
X440480Y331078D01*
Y326821D01*
X440470Y326820D01*
X439510Y326422D01*
X438687Y325790D01*
X438054Y324966D01*
X437657Y324006D01*
X437521Y322976D01*
Y320024D01*
X437657Y318994D01*
X438054Y318034D01*
X438687Y317210D01*
X439510Y316578D01*
X440470Y316180D01*
X441500Y316045D01*
X442530Y316180D01*
X443490Y316578D01*
X444313Y317210D01*
X444346Y317212D01*
X448279Y313279D01*
X448610Y313058D01*
X449000Y312980D01*
X470000D01*
X470390Y313058D01*
X470721Y313279D01*
X473721Y316279D01*
X473942Y316610D01*
X474020Y317000D01*
Y341929D01*
X478815D01*
Y348047D01*
X467185D01*
Y341929D01*
X471980D01*
Y317422D01*
X469578Y315020D01*
X449422D01*
X445356Y319086D01*
X445479Y320024D01*
Y322976D01*
X445343Y324006D01*
X444946Y324966D01*
X444313Y325790D01*
X443490Y326422D01*
X442530Y326820D01*
X442520Y326821D01*
Y331500D01*
X442442Y331890D01*
X442221Y332221D01*
X437462Y336980D01*
X437669Y337480D01*
X453578D01*
X460480Y330578D01*
Y326821D01*
X460470Y326820D01*
X459511Y326422D01*
X458686Y325790D01*
X458054Y324966D01*
X457657Y324006D01*
X457521Y322976D01*
Y320024D01*
X457657Y318994D01*
X458054Y318034D01*
X458686Y317210D01*
X459511Y316578D01*
X460470Y316180D01*
X461500Y316045D01*
X462530Y316180D01*
X463489Y316578D01*
X464314Y317210D01*
X464946Y318034D01*
X465343Y318994D01*
X465479Y320024D01*
Y322976D01*
X465343Y324006D01*
X464946Y324966D01*
X464314Y325790D01*
X463489Y326422D01*
X462530Y326820D01*
X462520Y326821D01*
Y331000D01*
X462442Y331390D01*
X462221Y331721D01*
X454721Y339221D01*
X454390Y339442D01*
X454000Y339520D01*
X416500D01*
X416110Y339442D01*
X415779Y339221D01*
X412279Y335721D01*
X412058Y335390D01*
X411980Y335000D01*
Y313922D01*
X408322Y310264D01*
X406952D01*
X406782Y310764D01*
X407322Y311178D01*
X407844Y311858D01*
X408172Y312650D01*
X408284Y313500D01*
X408172Y314350D01*
X407844Y315142D01*
X407322Y315822D01*
X406642Y316344D01*
X405850Y316672D01*
X405000Y316784D01*
X404150Y316672D01*
X403881Y316561D01*
X401462Y318980D01*
X401669Y319480D01*
X404441D01*
X404831Y319558D01*
X405162Y319779D01*
X407662Y322279D01*
X407883Y322610D01*
X407961Y323000D01*
Y336078D01*
X414863Y342980D01*
X425398D01*
X425656Y342358D01*
X426178Y341678D01*
X426858Y341156D01*
X427650Y340828D01*
X428500Y340716D01*
X429350Y340828D01*
X430142Y341156D01*
X430822Y341678D01*
X431344Y342358D01*
X431672Y343150D01*
X431784Y344000D01*
X431672Y344850D01*
X431414Y345472D01*
X434922Y348980D01*
X452000D01*
X452390Y349058D01*
X452721Y349279D01*
X457028Y353586D01*
X457650Y353328D01*
X458500Y353216D01*
X459350Y353328D01*
X460142Y353656D01*
X460822Y354178D01*
X461344Y354858D01*
X461672Y355650D01*
X461784Y356500D01*
X461672Y357350D01*
X461344Y358142D01*
X460822Y358822D01*
X460142Y359344D01*
X459350Y359672D01*
X458500Y359784D01*
X457650Y359672D01*
X456858Y359344D01*
X456178Y358822D01*
X455656Y358142D01*
X455328Y357350D01*
X455216Y356500D01*
X455328Y355650D01*
X455586Y355028D01*
X451578Y351020D01*
X434500D01*
X434110Y350942D01*
X433779Y350721D01*
X429972Y346914D01*
X429350Y347172D01*
X428500Y347284D01*
X427650Y347172D01*
X426858Y346844D01*
X426178Y346322D01*
X425656Y345642D01*
X425398Y345020D01*
X414441D01*
X414051Y344942D01*
X413720Y344721D01*
X406220Y337221D01*
X405999Y336890D01*
X405921Y336500D01*
Y323422D01*
X404019Y321520D01*
X395863D01*
X394570Y322813D01*
Y323845D01*
X395070Y323894D01*
X395108Y323701D01*
X395329Y323370D01*
X395920Y322779D01*
X396251Y322558D01*
X396641Y322480D01*
X403641D01*
X404031Y322558D01*
X404362Y322779D01*
X404862Y323279D01*
X405083Y323610D01*
X405161Y324000D01*
Y344480D01*
X408441D01*
X408831Y344558D01*
X409162Y344779D01*
X415363Y350980D01*
X424000D01*
X424390Y351058D01*
X424721Y351279D01*
X427028Y353586D01*
X427650Y353328D01*
X428500Y353216D01*
X429350Y353328D01*
X430142Y353656D01*
X430822Y354178D01*
X431344Y354858D01*
X431672Y355650D01*
X431784Y356500D01*
X431672Y357350D01*
X431344Y358142D01*
X430822Y358822D01*
X430142Y359344D01*
X429350Y359672D01*
X428500Y359784D01*
X427650Y359672D01*
X426858Y359344D01*
X426178Y358822D01*
X425656Y358142D01*
X425328Y357350D01*
X425216Y356500D01*
X425328Y355650D01*
X425586Y355028D01*
X423578Y353020D01*
X415961D01*
Y355429D01*
X420756D01*
Y361547D01*
X409126D01*
Y355429D01*
X413921D01*
Y352422D01*
X408019Y346520D01*
X405161D01*
Y356500D01*
X405083Y356890D01*
X404862Y357221D01*
X402862Y359221D01*
X402531Y359442D01*
X402141Y359520D01*
X397141D01*
X396751Y359442D01*
X396420Y359221D01*
X396141Y358942D01*
X389862Y365221D01*
X389531Y365442D01*
X389141Y365520D01*
X361941D01*
X361551Y365442D01*
X361220Y365221D01*
X355220Y359221D01*
X354999Y358890D01*
X354921Y358500D01*
Y331825D01*
X354428Y331621D01*
X353801Y331140D01*
X353320Y330513D01*
X353018Y329783D01*
X352915Y329000D01*
X353018Y328217D01*
X353320Y327487D01*
X353801Y326860D01*
X354428Y326379D01*
X354921Y326175D01*
Y320000D01*
X354999Y319610D01*
X355220Y319279D01*
X365976Y308523D01*
X366307Y308302D01*
X366697Y308225D01*
X408744D01*
X409134Y308302D01*
X409465Y308523D01*
X413721Y312779D01*
X413942Y313110D01*
X414020Y313500D01*
Y334578D01*
X416922Y337480D01*
X419831D01*
X420039Y336980D01*
X418279Y335221D01*
X418058Y334890D01*
X417980Y334500D01*
Y311922D01*
X413351Y307293D01*
X297161D01*
Y319646D01*
X301168D01*
Y338953D01*
X291113D01*
Y319646D01*
X295121D01*
Y307293D01*
X259625D01*
X254184Y312734D01*
Y316721D01*
X256224D01*
Y328350D01*
X254184D01*
Y340721D01*
X256724D01*
Y352350D01*
X254672D01*
Y364721D01*
X256712D01*
Y376350D01*
X254672D01*
Y388720D01*
X256712D01*
Y400350D01*
X254672D01*
Y413221D01*
X256712D01*
Y424850D01*
X254672D01*
Y431524D01*
X254595Y431914D01*
X254374Y432245D01*
X252476Y434143D01*
Y437567D01*
X253728D01*
Y442504D01*
X252476D01*
Y456893D01*
X261583Y466000D01*
X333234D01*
X347621Y451613D01*
Y392000D01*
X347699Y391610D01*
X347920Y391279D01*
X349420Y389779D01*
X349751Y389558D01*
X350141Y389480D01*
X361208D01*
Y382130D01*
X372090D01*
Y398012D01*
X361208D01*
Y391520D01*
X350563D01*
X349660Y392422D01*
Y452035D01*
X349583Y452426D01*
X349362Y452756D01*
X334378Y467741D01*
X334047Y467962D01*
X333657Y468039D01*
X261161D01*
X260770Y467962D01*
X260440Y467741D01*
X250735Y458036D01*
X250514Y457705D01*
X250436Y457315D01*
Y442858D01*
X250083Y442504D01*
X249184Y442504D01*
X248913Y442891D01*
Y443004D01*
X246641D01*
Y440035D01*
Y437067D01*
X248913D01*
Y437180D01*
X249184Y437567D01*
X249413Y437567D01*
X250436D01*
Y433720D01*
X250514Y433330D01*
X250735Y433000D01*
X252633Y431101D01*
Y424850D01*
X250594D01*
Y413221D01*
X252633D01*
Y400350D01*
X250594D01*
Y388720D01*
X252633D01*
Y376350D01*
X250594D01*
Y364721D01*
X252633D01*
Y352350D01*
X250606D01*
Y340721D01*
X252145D01*
Y328350D01*
X250106D01*
Y316721D01*
X252145D01*
Y312312D01*
X252223Y311922D01*
X252444Y311591D01*
X256279Y307755D01*
X256088Y307293D01*
X234590D01*
X229184Y312699D01*
Y316721D01*
X231212D01*
Y328350D01*
X229172D01*
Y340721D01*
X231212D01*
Y352350D01*
X229172D01*
Y364721D01*
X231212D01*
Y376350D01*
X229172D01*
Y388720D01*
X231212D01*
Y400350D01*
X229172D01*
Y413221D01*
X231212D01*
Y424850D01*
X229172D01*
Y437339D01*
X229095Y437729D01*
X228874Y438060D01*
X227728Y439206D01*
Y442504D01*
X226476D01*
Y444113D01*
X253863Y471500D01*
X339549D01*
X352480Y458569D01*
Y443500D01*
X352558Y443110D01*
X352779Y442779D01*
X356279Y439279D01*
X356610Y439058D01*
X357000Y438980D01*
X361208D01*
Y431618D01*
X372090D01*
Y439085D01*
X372146Y439169D01*
X372223Y439559D01*
X372146Y439949D01*
X372090Y440033D01*
Y447500D01*
X361208D01*
Y441020D01*
X357422D01*
X354520Y443922D01*
Y458991D01*
X354442Y459381D01*
X354221Y459712D01*
X340693Y473241D01*
X340362Y473462D01*
X339972Y473539D01*
D02*
G37*
G36*
X331653Y429850D02*
X328594D01*
Y424035D01*
X331653D01*
Y429850D01*
D02*
G37*
G36*
X327594D02*
X324535D01*
Y424035D01*
X327594D01*
Y429850D01*
D02*
G37*
G36*
X246188Y425350D02*
X243129D01*
Y419535D01*
X246188D01*
Y425350D01*
D02*
G37*
G36*
X220688D02*
X217629D01*
Y419535D01*
X220688D01*
Y425350D01*
D02*
G37*
G36*
X242129D02*
X239070D01*
Y419535D01*
X242129D01*
Y425350D01*
D02*
G37*
G36*
X216629D02*
X213570D01*
Y419535D01*
X216629D01*
Y425350D01*
D02*
G37*
G36*
X331653Y423035D02*
X328594D01*
Y417220D01*
X331653D01*
Y423035D01*
D02*
G37*
G36*
X327594D02*
X324535D01*
Y417220D01*
X327594D01*
Y423035D01*
D02*
G37*
G36*
X246188Y418536D02*
X243129D01*
Y412720D01*
X246188D01*
Y418536D01*
D02*
G37*
G36*
X242129D02*
X239070D01*
Y412720D01*
X242129D01*
Y418536D01*
D02*
G37*
G36*
X220688D02*
X217629D01*
Y412720D01*
X220688D01*
Y418536D01*
D02*
G37*
G36*
X216629D02*
X213570D01*
Y412720D01*
X216629D01*
Y418536D01*
D02*
G37*
G36*
X372590Y418905D02*
X367149D01*
Y410964D01*
X372590D01*
Y418905D01*
D02*
G37*
G36*
X366149D02*
X360708D01*
Y410964D01*
X366149D01*
Y418905D01*
D02*
G37*
G36*
X301168Y413654D02*
X296141D01*
Y404000D01*
X301168D01*
Y413654D01*
D02*
G37*
G36*
X295141D02*
X290113D01*
Y404000D01*
X295141D01*
Y413654D01*
D02*
G37*
G36*
X372590Y409965D02*
X367149D01*
Y402024D01*
X372590D01*
Y409965D01*
D02*
G37*
G36*
X366149D02*
X360708D01*
Y402024D01*
X366149D01*
Y409965D01*
D02*
G37*
G36*
X331653Y405350D02*
X328594D01*
Y399535D01*
X331653D01*
Y405350D01*
D02*
G37*
G36*
X327594D02*
X324535D01*
Y399535D01*
X327594D01*
Y405350D01*
D02*
G37*
G36*
X246188Y400850D02*
X243129D01*
Y395035D01*
X246188D01*
Y400850D01*
D02*
G37*
G36*
X220688D02*
X217629D01*
Y395035D01*
X220688D01*
Y400850D01*
D02*
G37*
G36*
X242129D02*
X239070D01*
Y395035D01*
X242129D01*
Y400850D01*
D02*
G37*
G36*
X216629D02*
X213570D01*
Y395035D01*
X216629D01*
Y400850D01*
D02*
G37*
G36*
X301168Y403000D02*
X296141D01*
Y393347D01*
X301168D01*
Y403000D01*
D02*
G37*
G36*
X295141D02*
X290113D01*
Y393347D01*
X295141D01*
Y403000D01*
D02*
G37*
G36*
X464641Y404023D02*
X463221Y403836D01*
X461897Y403288D01*
X460760Y402416D01*
X459888Y401279D01*
X459340Y399956D01*
X459153Y398535D01*
X459340Y397115D01*
X459888Y395792D01*
X460760Y394655D01*
X461897Y393783D01*
X463221Y393234D01*
X464641Y393048D01*
X466061Y393234D01*
X467385Y393783D01*
X468521Y394655D01*
X469394Y395792D01*
X469942Y397115D01*
X470129Y398535D01*
X469942Y399956D01*
X469394Y401279D01*
X468521Y402416D01*
X467385Y403288D01*
X466061Y403836D01*
X464641Y404023D01*
D02*
G37*
G36*
X331653Y398535D02*
X328594D01*
Y392721D01*
X331653D01*
Y398535D01*
D02*
G37*
G36*
X327594D02*
X324535D01*
Y392721D01*
X327594D01*
Y398535D01*
D02*
G37*
G36*
X246188Y394035D02*
X243129D01*
Y388221D01*
X246188D01*
Y394035D01*
D02*
G37*
G36*
X242129D02*
X239070D01*
Y388221D01*
X242129D01*
Y394035D01*
D02*
G37*
G36*
X220688D02*
X217629D01*
Y388221D01*
X220688D01*
Y394035D01*
D02*
G37*
G36*
X216629D02*
X213570D01*
Y388221D01*
X216629D01*
Y394035D01*
D02*
G37*
G36*
X439027Y387941D02*
X431086D01*
Y382500D01*
X439027D01*
Y387941D01*
D02*
G37*
G36*
X430086D02*
X422145D01*
Y382500D01*
X430086D01*
Y387941D01*
D02*
G37*
G36*
X464641Y387488D02*
X463221Y387301D01*
X461897Y386753D01*
X460760Y385880D01*
X459888Y384744D01*
X459340Y383420D01*
X459153Y382000D01*
X459340Y380580D01*
X459888Y379256D01*
X460760Y378119D01*
X461897Y377247D01*
X463221Y376699D01*
X464641Y376512D01*
X466061Y376699D01*
X467385Y377247D01*
X468521Y378119D01*
X469394Y379256D01*
X469942Y380580D01*
X470129Y382000D01*
X469942Y383420D01*
X469394Y384744D01*
X468521Y385880D01*
X467385Y386753D01*
X466061Y387301D01*
X464641Y387488D01*
D02*
G37*
G36*
X439027Y381500D02*
X431086D01*
Y376059D01*
X439027D01*
Y381500D01*
D02*
G37*
G36*
X430086D02*
X422145D01*
Y376059D01*
X430086D01*
Y381500D01*
D02*
G37*
G36*
X331653Y381350D02*
X328594D01*
Y375535D01*
X331653D01*
Y381350D01*
D02*
G37*
G36*
X327594D02*
X324535D01*
Y375535D01*
X327594D01*
Y381350D01*
D02*
G37*
G36*
X246188Y376850D02*
X243129D01*
Y371035D01*
X246188D01*
Y376850D01*
D02*
G37*
G36*
X220688D02*
X217629D01*
Y371035D01*
X220688D01*
Y376850D01*
D02*
G37*
G36*
X242129D02*
X239070D01*
Y371035D01*
X242129D01*
Y376850D01*
D02*
G37*
G36*
X216629D02*
X213570D01*
Y371035D01*
X216629D01*
Y376850D01*
D02*
G37*
G36*
X421256Y373071D02*
X415441D01*
Y370012D01*
X421256D01*
Y373071D01*
D02*
G37*
G36*
X414441D02*
X408626D01*
Y370012D01*
X414441D01*
Y373071D01*
D02*
G37*
G36*
X464641Y420519D02*
X463221Y420332D01*
X461897Y419784D01*
X460760Y418912D01*
X459888Y417775D01*
X459340Y416452D01*
X459153Y415031D01*
X459340Y413611D01*
X459888Y412288D01*
X460760Y411151D01*
X461897Y410279D01*
X463221Y409731D01*
X464641Y409544D01*
X466061Y409731D01*
X467385Y410279D01*
X468521Y411151D01*
X469394Y412288D01*
X469942Y413611D01*
X469995Y414012D01*
X472487D01*
X477090Y409409D01*
Y376422D01*
X475187Y374520D01*
X464500D01*
X464110Y374442D01*
X463779Y374221D01*
X463279Y373721D01*
X463058Y373390D01*
X462980Y373000D01*
Y370422D01*
X462173Y369615D01*
X461673Y369750D01*
Y370870D01*
X457327D01*
Y366130D01*
X461673D01*
Y367480D01*
X465709D01*
Y366130D01*
X469827D01*
X470055Y366130D01*
X470327Y365742D01*
Y365630D01*
X472500D01*
Y368500D01*
Y371370D01*
X470327D01*
Y371258D01*
X470055Y370870D01*
X469827Y370870D01*
X465709D01*
Y369967D01*
X465469Y369877D01*
X465020Y370236D01*
Y372480D01*
X475609D01*
X476000Y372558D01*
X476330Y372779D01*
X478830Y375279D01*
X479051Y375610D01*
X479129Y376000D01*
Y409831D01*
X479051Y410222D01*
X478830Y410553D01*
X473630Y415753D01*
X473300Y415974D01*
X472909Y416051D01*
X469995D01*
X469942Y416452D01*
X469394Y417775D01*
X468521Y418912D01*
X467385Y419784D01*
X466061Y420332D01*
X464641Y420519D01*
D02*
G37*
G36*
X475673Y371370D02*
X473500D01*
Y369000D01*
X475673D01*
Y371370D01*
D02*
G37*
G36*
X331653Y374535D02*
X328594D01*
Y368721D01*
X331653D01*
Y374535D01*
D02*
G37*
G36*
X327594D02*
X324535D01*
Y368721D01*
X327594D01*
Y374535D01*
D02*
G37*
G36*
X301669Y376854D02*
X296641D01*
Y367201D01*
X301669D01*
Y376854D01*
D02*
G37*
G36*
X295641D02*
X290613D01*
Y367201D01*
X295641D01*
Y376854D01*
D02*
G37*
G36*
X448370Y370969D02*
X443827D01*
Y366032D01*
X448370D01*
Y367480D01*
X452209D01*
Y366130D01*
X456555D01*
Y370870D01*
X452209D01*
Y369520D01*
X448370D01*
Y370969D01*
D02*
G37*
G36*
X421256Y369012D02*
X415441D01*
Y365953D01*
X421256D01*
Y369012D01*
D02*
G37*
G36*
X414441D02*
X408626D01*
Y365953D01*
X414441D01*
Y369012D01*
D02*
G37*
G36*
X475673Y368000D02*
X473500D01*
Y365630D01*
X475673D01*
Y368000D01*
D02*
G37*
G36*
X464641Y437015D02*
X463221Y436828D01*
X461897Y436280D01*
X460760Y435408D01*
X459888Y434271D01*
X459340Y432948D01*
X459153Y431528D01*
X459340Y430107D01*
X459888Y428784D01*
X460760Y427647D01*
X461897Y426775D01*
X463221Y426227D01*
X464641Y426040D01*
X466061Y426227D01*
X467385Y426775D01*
X468521Y427647D01*
X469394Y428784D01*
X469942Y430107D01*
X469995Y430508D01*
X473991D01*
X480621Y423878D01*
Y367922D01*
X477219Y364520D01*
X443363D01*
X442313Y365570D01*
X442505Y366032D01*
X443055D01*
Y370969D01*
X438512D01*
Y366032D01*
X439764D01*
Y365657D01*
X439842Y365267D01*
X440063Y364936D01*
X442220Y362779D01*
X442551Y362558D01*
X442941Y362480D01*
X477641D01*
X478031Y362558D01*
X478362Y362779D01*
X482362Y366779D01*
X482583Y367110D01*
X482660Y367500D01*
Y424300D01*
X482583Y424690D01*
X482362Y425021D01*
X475134Y432248D01*
X474804Y432470D01*
X474413Y432547D01*
X469995D01*
X469942Y432948D01*
X469394Y434271D01*
X468521Y435408D01*
X467385Y436280D01*
X466061Y436828D01*
X464641Y437015D01*
D02*
G37*
G36*
X246188Y370035D02*
X243129D01*
Y364220D01*
X246188D01*
Y370035D01*
D02*
G37*
G36*
X242129D02*
X239070D01*
Y364220D01*
X242129D01*
Y370035D01*
D02*
G37*
G36*
X220688D02*
X217629D01*
Y364220D01*
X220688D01*
Y370035D01*
D02*
G37*
G36*
X216629D02*
X213570D01*
Y364220D01*
X216629D01*
Y370035D01*
D02*
G37*
G36*
X301669Y366201D02*
X296641D01*
Y356547D01*
X301669D01*
Y366201D01*
D02*
G37*
G36*
X295641D02*
X290613D01*
Y356547D01*
X295641D01*
Y366201D01*
D02*
G37*
G36*
X479315Y359571D02*
X473500D01*
Y356512D01*
X479315D01*
Y359571D01*
D02*
G37*
G36*
X472500D02*
X466685D01*
Y356512D01*
X472500D01*
Y359571D01*
D02*
G37*
G36*
X479315Y355512D02*
X473500D01*
Y352453D01*
X479315D01*
Y355512D01*
D02*
G37*
G36*
X472500D02*
X466685D01*
Y352453D01*
X472500D01*
Y355512D01*
D02*
G37*
G36*
X331676Y356350D02*
X328617D01*
Y350535D01*
X331676D01*
Y356350D01*
D02*
G37*
G36*
X327617D02*
X324558D01*
Y350535D01*
X327617D01*
Y356350D01*
D02*
G37*
G36*
X220688Y352850D02*
X217629D01*
Y347035D01*
X220688D01*
Y352850D01*
D02*
G37*
G36*
X216629D02*
X213570D01*
Y347035D01*
X216629D01*
Y352850D01*
D02*
G37*
G36*
X246200D02*
X243141D01*
Y347035D01*
X246200D01*
Y352850D01*
D02*
G37*
G36*
X242141D02*
X239082D01*
Y347035D01*
X242141D01*
Y352850D01*
D02*
G37*
G36*
X459000Y347723D02*
Y344500D01*
X462222D01*
X462159Y344981D01*
X461781Y345894D01*
X461179Y346679D01*
X460394Y347281D01*
X459480Y347659D01*
X459000Y347723D01*
D02*
G37*
G36*
X458000D02*
X457519Y347659D01*
X456606Y347281D01*
X455821Y346679D01*
X455219Y345894D01*
X454841Y344981D01*
X454777Y344500D01*
X458000D01*
Y347723D01*
D02*
G37*
G36*
X331676Y349535D02*
X328617D01*
Y343721D01*
X331676D01*
Y349535D01*
D02*
G37*
G36*
X327617D02*
X324558D01*
Y343721D01*
X327617D01*
Y349535D01*
D02*
G37*
G36*
X462222Y343500D02*
X459000D01*
Y340278D01*
X459480Y340341D01*
X460394Y340719D01*
X461179Y341321D01*
X461781Y342106D01*
X462159Y343020D01*
X462222Y343500D01*
D02*
G37*
G36*
X458000D02*
X454777D01*
X454841Y343020D01*
X455219Y342106D01*
X455821Y341321D01*
X456606Y340719D01*
X457519Y340341D01*
X458000Y340278D01*
Y343500D01*
D02*
G37*
G36*
X246200Y346035D02*
X243141D01*
Y340220D01*
X246200D01*
Y346035D01*
D02*
G37*
G36*
X242141D02*
X239082D01*
Y340220D01*
X242141D01*
Y346035D01*
D02*
G37*
G36*
X220688Y346035D02*
X217629D01*
Y340220D01*
X220688D01*
Y346035D01*
D02*
G37*
G36*
X216629D02*
X213570D01*
Y340220D01*
X216629D01*
Y346035D01*
D02*
G37*
G36*
X331629Y332335D02*
X328570D01*
Y326520D01*
X331629D01*
Y332335D01*
D02*
G37*
G36*
X327570D02*
X324511D01*
Y326520D01*
X327570D01*
Y332335D01*
D02*
G37*
G36*
X220688Y328850D02*
X217629D01*
Y323035D01*
X220688D01*
Y328850D01*
D02*
G37*
G36*
X216629D02*
X213570D01*
Y323035D01*
X216629D01*
Y328850D01*
D02*
G37*
G36*
X245700D02*
X242641D01*
Y323035D01*
X245700D01*
Y328850D01*
D02*
G37*
G36*
X241641D02*
X238582D01*
Y323035D01*
X241641D01*
Y328850D01*
D02*
G37*
G36*
X452000Y327394D02*
Y322000D01*
X455983D01*
Y322976D01*
X455830Y324137D01*
X455383Y325218D01*
X454670Y326147D01*
X453742Y326859D01*
X452660Y327307D01*
X452000Y327394D01*
D02*
G37*
G36*
X432000D02*
Y322000D01*
X435983D01*
Y322976D01*
X435830Y324137D01*
X435383Y325218D01*
X434670Y326147D01*
X433742Y326859D01*
X432660Y327307D01*
X432000Y327394D01*
D02*
G37*
G36*
X451000Y327394D02*
X450340Y327307D01*
X449258Y326859D01*
X448330Y326147D01*
X447617Y325218D01*
X447169Y324137D01*
X447017Y322976D01*
Y322000D01*
X451000D01*
Y327394D01*
D02*
G37*
G36*
X431000D02*
X430340Y327307D01*
X429258Y326859D01*
X428330Y326147D01*
X427617Y325218D01*
X427170Y324137D01*
X427017Y322976D01*
Y322000D01*
X431000D01*
Y327394D01*
D02*
G37*
G36*
X332129Y463055D02*
X302176D01*
X301786Y462977D01*
X301455Y462756D01*
X295719Y457020D01*
X269188D01*
X268798Y456942D01*
X268467Y456721D01*
X264444Y452697D01*
X264223Y452367D01*
X264145Y451976D01*
Y317860D01*
X263652Y317656D01*
X263025Y317175D01*
X262544Y316548D01*
X262242Y315819D01*
X262139Y315035D01*
X262242Y314252D01*
X262544Y313523D01*
X263025Y312896D01*
X263652Y312415D01*
X264381Y312113D01*
X265165Y312010D01*
X265948Y312113D01*
X266677Y312415D01*
X267304Y312896D01*
X267785Y313523D01*
X268087Y314252D01*
X268191Y315035D01*
X268087Y315819D01*
X267785Y316548D01*
X267304Y317175D01*
X266677Y317656D01*
X266184Y317860D01*
Y451554D01*
X269611Y454980D01*
X295121D01*
Y450555D01*
X290613D01*
Y431248D01*
X300669D01*
Y450555D01*
X297161D01*
Y455578D01*
X302599Y461016D01*
X331707D01*
X338098Y454625D01*
Y453350D01*
X336058D01*
Y441720D01*
X338098D01*
Y429350D01*
X336058D01*
Y417721D01*
X338098D01*
Y404850D01*
X336058D01*
Y393220D01*
X338098D01*
Y380850D01*
X336058D01*
Y369220D01*
X338098D01*
Y355850D01*
X336082D01*
Y344220D01*
X338074D01*
Y331835D01*
X336035D01*
Y320205D01*
X342153D01*
Y325000D01*
X345961D01*
X346351Y325078D01*
X346682Y325299D01*
X351162Y329779D01*
X351383Y330110D01*
X351461Y330500D01*
Y361078D01*
X358863Y368480D01*
X397441D01*
X397831Y368558D01*
X398162Y368779D01*
X401425Y372042D01*
X401646Y372373D01*
X401723Y372763D01*
Y376559D01*
X408645D01*
Y387441D01*
X392763D01*
Y376559D01*
X399684D01*
Y373185D01*
X397019Y370520D01*
X358441D01*
X358051Y370442D01*
X357720Y370221D01*
X349720Y362221D01*
X349499Y361890D01*
X349421Y361500D01*
Y330922D01*
X345538Y327039D01*
X342153D01*
Y331835D01*
X340113D01*
Y344220D01*
X342200D01*
Y355850D01*
X340137D01*
Y369220D01*
X342176D01*
Y380850D01*
X340137D01*
Y393220D01*
X342176D01*
Y404850D01*
X340137D01*
Y417721D01*
X342176D01*
Y429350D01*
X340137D01*
Y441720D01*
X342176D01*
Y453350D01*
X340137D01*
Y455047D01*
X340059Y455437D01*
X339838Y455768D01*
X332850Y462756D01*
X332519Y462977D01*
X332129Y463055D01*
D02*
G37*
G36*
X331629Y325520D02*
X328570D01*
Y319705D01*
X331629D01*
Y325520D01*
D02*
G37*
G36*
X327570D02*
X324511D01*
Y319705D01*
X327570D01*
Y325520D01*
D02*
G37*
G36*
X245700Y322035D02*
X242641D01*
Y316220D01*
X245700D01*
Y322035D01*
D02*
G37*
G36*
X241641D02*
X238582D01*
Y316220D01*
X241641D01*
Y322035D01*
D02*
G37*
G36*
X220688Y322035D02*
X217629D01*
Y316220D01*
X220688D01*
Y322035D01*
D02*
G37*
G36*
X216629D02*
X213570D01*
Y316220D01*
X216629D01*
Y322035D01*
D02*
G37*
G36*
X455983Y321000D02*
X452000D01*
Y315606D01*
X452660Y315693D01*
X453742Y316141D01*
X454670Y316853D01*
X455383Y317782D01*
X455830Y318863D01*
X455983Y320024D01*
Y321000D01*
D02*
G37*
G36*
X435983D02*
X432000D01*
Y315606D01*
X432660Y315693D01*
X433742Y316141D01*
X434670Y316853D01*
X435383Y317782D01*
X435830Y318863D01*
X435983Y320024D01*
Y321000D01*
D02*
G37*
G36*
X451000D02*
X447017D01*
Y320024D01*
X447169Y318863D01*
X447617Y317782D01*
X448330Y316853D01*
X449258Y316141D01*
X450340Y315693D01*
X451000Y315606D01*
Y321000D01*
D02*
G37*
G36*
X431000D02*
X427017D01*
Y320024D01*
X427170Y318863D01*
X427617Y317782D01*
X428330Y316853D01*
X429258Y316141D01*
X430340Y315693D01*
X431000Y315606D01*
Y321000D01*
D02*
G37*
%LPD*%
G36*
X385121Y358078D02*
Y356746D01*
X384621Y356697D01*
X384583Y356890D01*
X384362Y357221D01*
X383862Y357721D01*
X383531Y357942D01*
X383141Y358020D01*
X374141D01*
X373751Y357942D01*
X373420Y357721D01*
X365779Y350080D01*
X365558Y349749D01*
X365480Y349359D01*
Y331160D01*
X365558Y330769D01*
X365779Y330439D01*
X378439Y317779D01*
X378769Y317558D01*
X379160Y317480D01*
X400078D01*
X402269Y315289D01*
X402156Y315142D01*
X401828Y314350D01*
X401716Y313500D01*
X401828Y312650D01*
X402156Y311858D01*
X402678Y311178D01*
X403218Y310764D01*
X403048Y310264D01*
X376952D01*
X376782Y310764D01*
X377322Y311178D01*
X377844Y311858D01*
X378172Y312650D01*
X378284Y313500D01*
X378172Y314350D01*
X377844Y315142D01*
X377322Y315822D01*
X376642Y316344D01*
X375850Y316672D01*
X375000Y316784D01*
X374698Y316744D01*
X361961Y329481D01*
Y350549D01*
X370892Y359480D01*
X383719D01*
X385121Y358078D01*
D02*
G37*
G36*
X395121Y357078D02*
Y355461D01*
X394750Y355150D01*
X394450Y355150D01*
X392650D01*
X392350Y355150D01*
X391850Y355150D01*
X389750Y355150D01*
X389250Y355150D01*
X387250Y355150D01*
X387160Y355613D01*
Y358500D01*
X387083Y358890D01*
X386862Y359221D01*
X384862Y361221D01*
X384531Y361442D01*
X384141Y361520D01*
X370469D01*
X370079Y361442D01*
X369748Y361221D01*
X360220Y351693D01*
X359999Y351362D01*
X359921Y350972D01*
Y329059D01*
X359999Y328669D01*
X360220Y328338D01*
X372681Y315877D01*
X372678Y315822D01*
X372156Y315142D01*
X371828Y314350D01*
X371716Y313500D01*
X371828Y312650D01*
X372156Y311858D01*
X372678Y311178D01*
X373218Y310764D01*
X373048Y310264D01*
X367119D01*
X356961Y320422D01*
Y326175D01*
X357454Y326379D01*
X358081Y326860D01*
X358561Y327487D01*
X358864Y328217D01*
X358967Y329000D01*
X358864Y329783D01*
X358561Y330513D01*
X358081Y331140D01*
X357454Y331621D01*
X356961Y331825D01*
Y358078D01*
X362363Y363480D01*
X388719D01*
X395121Y357078D01*
D02*
G37*
G36*
X403121Y356078D02*
Y345500D01*
Y324520D01*
X400922D01*
X399850Y325592D01*
Y332150D01*
X397450D01*
Y332150D01*
X397250D01*
Y332150D01*
X394850D01*
Y332150D01*
X394750D01*
Y332150D01*
X392650D01*
X392350Y332150D01*
X391850Y332150D01*
X390150D01*
Y332650D01*
X388950D01*
Y328750D01*
Y324850D01*
X390150D01*
Y325350D01*
X391850D01*
X392150Y325350D01*
X392530Y325061D01*
Y322391D01*
X392608Y322001D01*
X392829Y321670D01*
X394479Y320020D01*
X394272Y319520D01*
X379582D01*
X367520Y331582D01*
Y348937D01*
X374563Y355980D01*
X382621D01*
Y355150D01*
X382150D01*
Y348350D01*
X384150D01*
X384550Y348350D01*
Y348350D01*
X384650D01*
Y348350D01*
X386750D01*
X387050Y348350D01*
X387550Y348350D01*
X389650Y348350D01*
X390150Y348350D01*
X391850D01*
X392150Y348350D01*
X392650Y348350D01*
X394450D01*
X394750Y348350D01*
X395250Y348350D01*
X396985D01*
X397350Y348350D01*
X397350Y348350D01*
X397475Y348375D01*
Y348375D01*
X399875D01*
Y355175D01*
X399695D01*
Y356253D01*
X400922Y357480D01*
X401719D01*
X403121Y356078D01*
D02*
G37*
%LPC*%
G36*
X387950Y332650D02*
X386750D01*
Y332150D01*
X384950D01*
X384650Y332150D01*
X384150Y332150D01*
X382050D01*
Y325350D01*
X384150D01*
X384450Y325350D01*
X384950Y325350D01*
X386750D01*
Y324850D01*
X387950D01*
Y328750D01*
Y332650D01*
D02*
G37*
%LPD*%
D13*
X364759Y470138D02*
Y470425D01*
X357000Y440000D02*
X370763D01*
X353500Y443500D02*
Y458991D01*
Y443500D02*
X357000Y440000D01*
X339972Y472520D02*
X353500Y458991D01*
X396141Y357500D02*
X397141Y358500D01*
X400500D01*
X296141Y434000D02*
Y456000D01*
X389141Y364500D02*
X396141Y357500D01*
X361941Y364500D02*
X389141D01*
X400500Y358500D02*
X402141D01*
X398675Y356675D02*
X400500Y358500D01*
X398675Y351775D02*
Y356675D01*
X400500Y323500D02*
X403641D01*
X398650Y325350D02*
X400500Y323500D01*
X398650Y325350D02*
Y328750D01*
X419000Y311500D02*
Y334500D01*
X413774Y306274D02*
X419000Y311500D01*
Y334500D02*
X421000Y336500D01*
X296141Y306274D02*
X413774D01*
X441500Y321500D02*
X449000Y314000D01*
X470000D01*
X473000Y317000D01*
Y344988D01*
X441500Y321500D02*
Y331500D01*
X436500Y336500D02*
X441500Y331500D01*
X421000Y336500D02*
X436500D01*
X461500Y321500D02*
Y331000D01*
X454000Y338500D02*
X461500Y331000D01*
X416500Y338500D02*
X454000D01*
X413000Y335000D02*
X416500Y338500D01*
X413000Y313500D02*
Y335000D01*
X408744Y309244D02*
X413000Y313500D01*
X366697Y309244D02*
X408744D01*
X355941Y320000D02*
X366697Y309244D01*
X355941Y320000D02*
Y329000D01*
X379160Y318500D02*
X400500D01*
X366500Y331160D02*
X379160Y318500D01*
X400500D02*
X405000Y314000D01*
X375000D02*
Y315000D01*
X360941Y329059D02*
X375000Y315000D01*
X360941Y329059D02*
Y350972D01*
X406941Y336500D02*
X414441Y344000D01*
X428500D01*
X414941Y352000D02*
X424000D01*
X428500Y356500D01*
X452000Y350000D02*
X458500Y356500D01*
X434500Y350000D02*
X452000D01*
X428500Y344000D02*
X434500Y350000D01*
X393550Y322391D02*
Y328750D01*
X396050Y324091D02*
X396641Y323500D01*
X396050Y324091D02*
Y328750D01*
X393550Y322391D02*
X395441Y320500D01*
X366500Y349359D02*
X374141Y357000D01*
X366500Y331160D02*
Y349359D01*
X478109Y376000D02*
Y409831D01*
X462500Y368500D02*
X467882D01*
X459500D02*
X462500D01*
X475609Y373500D02*
X478109Y376000D01*
X464500Y373500D02*
X475609D01*
X464000Y373000D02*
X464500Y373500D01*
X464000Y370000D02*
Y373000D01*
X462500Y368500D02*
X464000Y370000D01*
X477641Y363500D02*
X481641Y367500D01*
X440784Y365657D02*
Y368500D01*
Y365657D02*
X442941Y363500D01*
X477641D01*
X481641Y367500D02*
Y424300D01*
X446098Y368500D02*
X454382D01*
X406941Y323000D02*
Y336500D01*
X404441Y320500D02*
X406941Y323000D01*
X395441Y320500D02*
X404441D01*
X404141Y324000D02*
Y345500D01*
Y356500D01*
Y345500D02*
X408441D01*
X414941Y352000D01*
Y358488D01*
X384141Y360500D02*
X386141Y358500D01*
X370469Y360500D02*
X384141D01*
X360941Y350972D02*
X370469Y360500D01*
X355941Y358500D02*
X361941Y364500D01*
X355941Y329000D02*
Y358500D01*
X358441Y369500D02*
X397441D01*
X350441Y361500D02*
X358441Y369500D01*
X350441Y330500D02*
Y361500D01*
X345961Y326020D02*
X350441Y330500D01*
X472909Y415031D02*
X478109Y409831D01*
X464641Y415031D02*
X472909D01*
X474413Y431528D02*
X481641Y424300D01*
X464641Y431528D02*
X474413D01*
X339094Y326020D02*
X345961D01*
X234167Y306274D02*
X296141D01*
X228165Y312276D02*
X234167Y306274D01*
X253165Y312312D02*
X259072Y306404D01*
X296141Y306274D02*
Y329299D01*
X253165Y312312D02*
Y322535D01*
X228165Y312276D02*
Y322524D01*
X400704Y372763D02*
Y382000D01*
X397441Y369500D02*
X400704Y372763D01*
X265165Y451976D02*
X269188Y456000D01*
X296141D01*
X228153Y322535D02*
X228165Y322524D01*
X265165Y315035D02*
Y451976D01*
X366220Y390500D02*
X366649Y390071D01*
X350141Y390500D02*
X366220D01*
X348641Y392000D02*
Y452035D01*
Y392000D02*
X350141Y390500D01*
X370763Y440000D02*
X371204Y439559D01*
X302176Y462035D02*
X332129D01*
X296141Y456000D02*
X302176Y462035D01*
X225456Y444535D02*
X253440Y472520D01*
X251456Y440035D02*
Y457315D01*
X261161Y467020D01*
X383641Y352500D02*
Y356500D01*
X383141Y357000D02*
X383641Y356500D01*
X374141Y357000D02*
X383141D01*
X386141Y352500D02*
Y358500D01*
X396641Y323500D02*
X400500D01*
X396141Y352800D02*
Y357500D01*
X402141Y358500D02*
X404141Y356500D01*
X403641Y323500D02*
X404141Y324000D01*
X225456Y440035D02*
X228153Y437339D01*
Y419035D02*
Y437339D01*
Y394535D02*
Y419035D01*
Y370535D02*
Y394535D01*
Y346535D02*
Y370535D01*
Y322535D02*
Y346535D01*
X332129Y462035D02*
X339117Y455047D01*
Y447535D02*
Y455047D01*
X339094Y326020D02*
Y349988D01*
X339141Y350035D01*
X339117Y350059D02*
X339141Y350035D01*
X339117Y350059D02*
Y375035D01*
Y399035D01*
Y423535D01*
Y447535D01*
X333657Y467020D02*
X348641Y452035D01*
X253440Y472520D02*
X339972D01*
X261161Y467020D02*
X333657D01*
X225456Y440035D02*
Y444535D01*
X253165Y322535D02*
Y346035D01*
X253665Y346535D01*
X253653Y346547D02*
X253665Y346535D01*
X253653Y346547D02*
Y370535D01*
Y394535D01*
Y419035D01*
Y431524D01*
X251456Y433720D02*
X253653Y431524D01*
X251456Y433720D02*
Y440035D01*
D15*
X454382Y368500D02*
D03*
X459500D02*
D03*
X473000D02*
D03*
X467882D02*
D03*
D16*
X295641Y403500D02*
D03*
Y440902D02*
D03*
X296141Y329299D02*
D03*
Y366701D02*
D03*
D17*
X339094Y326020D02*
D03*
X328070D02*
D03*
X242629Y419035D02*
D03*
X253653D02*
D03*
X242629Y394535D02*
D03*
X253653D02*
D03*
X242629Y370535D02*
D03*
X253653D02*
D03*
X242641Y346535D02*
D03*
X253665D02*
D03*
X242141Y322535D02*
D03*
X253165D02*
D03*
X217129Y419035D02*
D03*
X228153D02*
D03*
X217129Y394535D02*
D03*
X228153D02*
D03*
X217129Y370535D02*
D03*
X228153D02*
D03*
X217129Y346535D02*
D03*
X228153D02*
D03*
X217129Y322535D02*
D03*
X228153D02*
D03*
X339117Y447535D02*
D03*
X328094D02*
D03*
X339117Y423535D02*
D03*
X328094D02*
D03*
X339117Y399035D02*
D03*
X328094D02*
D03*
X339117Y375035D02*
D03*
X328094D02*
D03*
X339141Y350035D02*
D03*
X328117D02*
D03*
D18*
X414941Y369512D02*
D03*
Y358488D02*
D03*
X473000Y356012D02*
D03*
Y344988D02*
D03*
D19*
X446098Y368500D02*
D03*
X440784D02*
D03*
X251456Y440035D02*
D03*
X246141D02*
D03*
X225456D02*
D03*
X220141D02*
D03*
D20*
X400704Y382000D02*
D03*
X430586D02*
D03*
X443106Y464520D02*
D03*
D21*
X366649Y390071D02*
D03*
Y410465D02*
D03*
Y439559D02*
D03*
Y458260D02*
D03*
D22*
X464641Y382000D02*
D03*
Y398535D02*
D03*
Y415031D02*
D03*
Y431528D02*
D03*
Y448024D02*
D03*
Y464520D02*
D03*
D34*
X431500Y321500D02*
D03*
X461500D02*
D03*
X451500D02*
D03*
X441500D02*
D03*
D35*
X405000Y313500D02*
D03*
X375000D02*
D03*
X428500Y356500D02*
D03*
X458500D02*
D03*
X428500Y344000D02*
D03*
X458500D02*
D03*
D36*
X355941Y329000D02*
D03*
X265165Y315035D02*
D03*
M02*
