G04*
G04 #@! TF.GenerationSoftware,Altium Limited,Altium Designer,18.0.9 (584)*
G04*
G04 Layer_Color=32896*
%FSLAX25Y25*%
%MOIN*%
G70*
G01*
G75*
%ADD13C,0.01000*%
D13*
X316001Y475998D02*
X320000D01*
Y470000D01*
X316001D01*
X320000Y472999D02*
X318001D01*
X314002Y470000D02*
X312003D01*
X313002D01*
Y475998D01*
X314002D01*
X309004Y470000D02*
X307004D01*
X308004D01*
Y473999D01*
X309004D01*
X304005Y470000D02*
X301006D01*
X300007Y471000D01*
X301006Y471999D01*
X303006D01*
X304005Y472999D01*
X303006Y473999D01*
X300007D01*
X295008Y470000D02*
X297007D01*
X298007Y471000D01*
Y472999D01*
X297007Y473999D01*
X295008D01*
X294008Y472999D01*
Y471999D01*
X298007D01*
X286011Y470000D02*
Y475998D01*
X284012Y473999D01*
X282012Y475998D01*
Y470000D01*
X277014D02*
X279013D01*
X280013Y471000D01*
Y472999D01*
X279013Y473999D01*
X277014D01*
X276014Y472999D01*
Y471999D01*
X280013D01*
X274015Y470000D02*
X272016D01*
X273015D01*
Y473999D01*
X274015D01*
X269017Y470000D02*
Y475998D01*
Y471999D02*
X266018Y473999D01*
X269017Y471999D02*
X266018Y470000D01*
X260019D02*
X262019D01*
X263018Y471000D01*
Y472999D01*
X262019Y473999D01*
X260019D01*
X259020Y472999D01*
Y471999D01*
X263018D01*
X247024Y470000D02*
X251022D01*
X247024Y473999D01*
Y474998D01*
X248023Y475998D01*
X250023D01*
X251022Y474998D01*
X245024D02*
X244025Y475998D01*
X242025D01*
X241026Y474998D01*
Y471000D01*
X242025Y470000D01*
X244025D01*
X245024Y471000D01*
Y474998D01*
X239026Y470000D02*
X237027D01*
X238026D01*
Y475998D01*
X239026Y474998D01*
X234028Y471000D02*
X233028Y470000D01*
X231029D01*
X230029Y471000D01*
Y474998D01*
X231029Y475998D01*
X233028D01*
X234028Y474998D01*
Y473999D01*
X233028Y472999D01*
X230029D01*
X300141Y465998D02*
Y460000D01*
X297142D01*
X296142Y461000D01*
Y461999D01*
X297142Y462999D01*
X300141D01*
X297142D01*
X296142Y463999D01*
Y464998D01*
X297142Y465998D01*
X300141D01*
X294143Y460000D02*
Y465998D01*
X291144D01*
X290144Y464998D01*
Y462999D01*
X291144Y461999D01*
X294143D01*
X288145Y462999D02*
X284146D01*
X278148Y465998D02*
X282147D01*
Y460000D01*
X278148D01*
X282147Y462999D02*
X280147D01*
X276149D02*
X272150D01*
X266152Y460000D02*
X270151D01*
X266152Y463999D01*
Y464998D01*
X267152Y465998D01*
X269151D01*
X270151Y464998D01*
X264153Y460000D02*
X262153D01*
X263153D01*
Y465998D01*
X264153Y464998D01*
X259154D02*
X258155Y465998D01*
X256155D01*
X255155Y464998D01*
Y461000D01*
X256155Y460000D01*
X258155D01*
X259154Y461000D01*
Y464998D01*
X253156Y460000D02*
X251157D01*
X252156D01*
Y465998D01*
X253156Y464998D01*
X248158Y462999D02*
X244159D01*
X242160Y464998D02*
X241160Y465998D01*
X239161D01*
X238161Y464998D01*
Y461000D01*
X239161Y460000D01*
X241160D01*
X242160Y461000D01*
Y464998D01*
X232163Y465998D02*
X236162D01*
Y462999D01*
X234162Y463999D01*
X233163D01*
X232163Y462999D01*
Y461000D01*
X233163Y460000D01*
X235162D01*
X236162Y461000D01*
M02*
