G04*
G04 #@! TF.GenerationSoftware,Altium Limited,Altium Designer,18.0.9 (584)*
G04*
G04 Layer_Color=32768*
%FSLAX25Y25*%
%MOIN*%
G70*
G01*
G75*
%ADD11C,0.00787*%
%ADD38C,0.00394*%
%ADD39C,0.00197*%
D11*
X469492Y306933D02*
Y334492D01*
X423902Y306933D02*
X469492D01*
X423902D02*
Y332917D01*
Y336067D01*
X469492D01*
Y334492D02*
Y336067D01*
X444531Y321500D02*
X448468D01*
X446500Y319531D02*
Y323468D01*
D38*
X455071Y368500D02*
X458811D01*
X456941Y366630D02*
Y370370D01*
X293672Y422201D02*
X297609D01*
X295641Y420232D02*
Y424169D01*
X333582Y324051D02*
Y327988D01*
X331613Y326020D02*
X335550D01*
X414941Y362032D02*
Y365968D01*
X412972Y364000D02*
X416909D01*
X443441Y366630D02*
Y370370D01*
X441571Y368500D02*
X445311D01*
X246928Y440035D02*
X250669D01*
X248798Y438165D02*
Y441905D01*
X246172Y419035D02*
X250109D01*
X248141Y417067D02*
Y421004D01*
X246172Y394535D02*
X250109D01*
X248141Y392567D02*
Y396504D01*
X246172Y370535D02*
X250109D01*
X248141Y368567D02*
Y372504D01*
X246184Y346535D02*
X250121D01*
X248153Y344567D02*
Y348504D01*
X245684Y322535D02*
X249621D01*
X247653Y320567D02*
Y324504D01*
X220928Y440035D02*
X224669D01*
X222798Y438165D02*
Y441905D01*
X220672Y419035D02*
X224609D01*
X222641Y417067D02*
Y421004D01*
X220672Y394535D02*
X224609D01*
X222641Y392567D02*
Y396504D01*
X220672Y370535D02*
X224609D01*
X222641Y368567D02*
Y372504D01*
X220672Y346535D02*
X224609D01*
X222641Y344567D02*
Y348504D01*
X220672Y322535D02*
X224609D01*
X222641Y320567D02*
Y324504D01*
X333606Y445567D02*
Y449504D01*
X331637Y447535D02*
X335574D01*
X333606Y421567D02*
Y425504D01*
X331637Y423535D02*
X335574D01*
X333606Y397067D02*
Y401004D01*
X331637Y399035D02*
X335574D01*
X333606Y373067D02*
Y377004D01*
X331637Y375035D02*
X335574D01*
X333629Y348067D02*
Y352004D01*
X331661Y350035D02*
X335598D01*
X296141Y346031D02*
Y349969D01*
X294172Y348000D02*
X298109D01*
X473000Y348532D02*
Y352468D01*
X471032Y350500D02*
X474968D01*
X468571Y368500D02*
X472311D01*
X470441Y366630D02*
Y370370D01*
D39*
X451626Y365547D02*
Y371453D01*
X462256Y365547D02*
Y371453D01*
X451626D02*
X462256D01*
X451626Y365547D02*
X462256D01*
X273200Y391886D02*
Y452516D01*
X317688Y391886D02*
Y452516D01*
X273200Y391886D02*
X317688D01*
X273200Y452516D02*
X317688D01*
X324527Y319721D02*
X342637D01*
X324527Y332319D02*
X342637D01*
Y319721D02*
Y332319D01*
X324527Y319721D02*
Y332319D01*
X408642Y373055D02*
X421240D01*
X408642Y354945D02*
X421240D01*
Y373055D01*
X408642Y354945D02*
Y373055D01*
X438126Y365547D02*
X448756D01*
X438126Y371453D02*
X448756D01*
Y365547D02*
Y371453D01*
X438126Y365547D02*
Y371453D01*
X254113Y437083D02*
Y442988D01*
X243483Y437083D02*
Y442988D01*
Y437083D02*
X254113D01*
X243483Y442988D02*
X254113D01*
X239086Y412736D02*
Y425335D01*
X257196Y412736D02*
Y425335D01*
X239086D02*
X257196D01*
X239086Y412736D02*
X257196D01*
X239086Y388236D02*
Y400835D01*
X257196Y388236D02*
Y400835D01*
X239086D02*
X257196D01*
X239086Y388236D02*
X257196D01*
X239086Y364236D02*
Y376835D01*
X257196Y364236D02*
Y376835D01*
X239086D02*
X257196D01*
X239086Y364236D02*
X257196D01*
X239098Y340236D02*
Y352835D01*
X257208Y340236D02*
Y352835D01*
X239098D02*
X257208D01*
X239098Y340236D02*
X257208D01*
X238598Y316236D02*
Y328835D01*
X256708Y316236D02*
Y328835D01*
X238598D02*
X256708D01*
X238598Y316236D02*
X256708D01*
X228113Y437083D02*
Y442988D01*
X217483Y437083D02*
Y442988D01*
Y437083D02*
X228113D01*
X217483Y442988D02*
X228113D01*
X213586Y412736D02*
Y425335D01*
X231696Y412736D02*
Y425335D01*
X213586D02*
X231696D01*
X213586Y412736D02*
X231696D01*
X213586Y388236D02*
Y400835D01*
X231696Y388236D02*
Y400835D01*
X213586D02*
X231696D01*
X213586Y388236D02*
X231696D01*
X213586Y364236D02*
Y376835D01*
X231696Y364236D02*
Y376835D01*
X213586D02*
X231696D01*
X213586Y364236D02*
X231696D01*
X213586Y340236D02*
Y352835D01*
X231696Y340236D02*
Y352835D01*
X213586D02*
X231696D01*
X213586Y340236D02*
X231696D01*
X213586Y316236D02*
Y328835D01*
X231696Y316236D02*
Y328835D01*
X213586D02*
X231696D01*
X213586Y316236D02*
X231696D01*
X324550Y441236D02*
X342661D01*
X324550Y453835D02*
X342661D01*
Y441236D02*
Y453835D01*
X324550Y441236D02*
Y453835D01*
Y417236D02*
X342661D01*
X324550Y429835D02*
X342661D01*
Y417236D02*
Y429835D01*
X324550Y417236D02*
Y429835D01*
Y392736D02*
X342661D01*
X324550Y405335D02*
X342661D01*
Y392736D02*
Y405335D01*
X324550Y392736D02*
Y405335D01*
Y368736D02*
X342661D01*
X324550Y381335D02*
X342661D01*
Y368736D02*
Y381335D01*
X324550Y368736D02*
Y381335D01*
X324574Y343736D02*
X342684D01*
X324574Y356335D02*
X342684D01*
Y343736D02*
Y356335D01*
X324574Y343736D02*
Y356335D01*
X274094Y317685D02*
X318582D01*
X274094Y378315D02*
X318582D01*
X274094Y317685D02*
Y378315D01*
X318582Y317685D02*
Y378315D01*
X466701Y359555D02*
X479299D01*
X466701Y341445D02*
X479299D01*
Y359555D01*
X466701Y341445D02*
Y359555D01*
X475756Y365547D02*
Y371453D01*
X465126Y365547D02*
Y371453D01*
Y365547D02*
X475756D01*
X465126Y371453D02*
X475756D01*
M02*
